<svg xmlns="http://www.w3.org/2000/svg" width="1139.944" height="233.946" viewBox="0 0 1139.944 233.946">
  <g id="Group_3611" data-name="Group 3611" transform="translate(-326.028 -343.559)">
    <g id="Group_3606" data-name="Group 3606">
      <g id="Group_3599" data-name="Group 3599">
        <rect id="Rectangle_2805" data-name="Rectangle 2805" width="73.817" height="73.817" rx="6.529" transform="translate(378.746 375.619) rotate(-11.774)" fill="#fca903"/>
      </g>
      <g id="Group_3600" data-name="Group 3600">
        <rect id="Rectangle_2806" data-name="Rectangle 2806" width="73.817" height="73.817" rx="6.529" transform="translate(395.742 457.163) rotate(-11.774)" fill="#fca903"/>
      </g>
      <g id="Group_3601" data-name="Group 3601">
        <rect id="Rectangle_2807" data-name="Rectangle 2807" width="73.817" height="73.817" rx="6.529" transform="translate(460.301 358.621) rotate(-11.774)" fill="#fca903"/>
      </g>
      <g id="Group_3602" data-name="Group 3602">
        <rect id="Rectangle_2808" data-name="Rectangle 2808" width="73.817" height="73.817" rx="6.529" transform="translate(477.299 440.175) rotate(-11.774)" fill="#fca903"/>
      </g>
      <g id="Group_3603" data-name="Group 3603">
        <path id="Path_2375" data-name="Path 2375" d="M386.955,521.783a5.182,5.182,0,0,1-5.066-4.125l-32.44-155.766a6.6,6.6,0,1,0-12.914,2.691l2.552,12.243a5.181,5.181,0,0,1-10.144,2.114L326.391,366.7a16.958,16.958,0,1,1,33.2-6.919l32.439,155.766a5.186,5.186,0,0,1-5.077,6.239Z" fill="#6c6cff"/>
      </g>
      <g id="Group_3604" data-name="Group 3604">
        <path id="Path_2376" data-name="Path 2376" d="M432.132,551.537a5.182,5.182,0,0,1-1.052-10.254l144.111-30.037A5.181,5.181,0,1,1,577.3,521.39L433.194,551.427A5.228,5.228,0,0,1,432.132,551.537Z" fill="#6c6cff"/>
      </g>
      <g id="Group_3605" data-name="Group 3605">
        <path id="Path_2377" data-name="Path 2377" d="M394.626,577.505a23.436,23.436,0,1,1,22.986-28.22h0A23.431,23.431,0,0,1,399.454,577,23.656,23.656,0,0,1,394.626,577.505Zm.074-36.513a13.258,13.258,0,0,0-2.693.279A13.069,13.069,0,1,0,407.468,551.4h0A13.08,13.08,0,0,0,394.7,540.992Z" fill="#fff"/>
      </g>
    </g>
    <g id="Group_3607" data-name="Group 3607">
      <path id="Path_2378" data-name="Path 2378" d="M781.309,398.947,747.378,508.221a6.308,6.308,0,0,1-6.025,4.438h-10.6a6.309,6.309,0,0,1-6.009-4.387l-24.41-76.323a54.721,54.721,0,0,1-1.961-7.189q-.491,2.043-.98,3.84t-1.063,3.349l-24.648,76.34a6.308,6.308,0,0,1-6,4.37H654.99a6.31,6.31,0,0,1-6.027-4.442L615.109,398.945a3.4,3.4,0,0,1,3.25-4.411h13.764a8.116,8.116,0,0,1,4.779,1.348,6.5,6.5,0,0,1,2.573,3.635l20.1,70.663q.652,2.616,1.266,5.678t1.266,6.412q.652-3.43,1.43-6.453t1.674-5.637l23.2-70.663a7.723,7.723,0,0,1,2.573-3.431,7.238,7.238,0,0,1,4.7-1.552h6.454a7.4,7.4,0,0,1,4.656,1.39,8.515,8.515,0,0,1,2.7,3.593L732.6,470.18a102.423,102.423,0,0,1,3.1,11.682q1.061-6.453,2.368-11.682l20.1-70.663a6.109,6.109,0,0,1,2.491-3.512,7.85,7.85,0,0,1,4.779-1.471h12.616A3.4,3.4,0,0,1,781.309,398.947Z" fill="#fff"/>
      <path id="Path_2379" data-name="Path 2379" d="M811.515,437.83A43.834,43.834,0,0,1,822.3,430.4a31.25,31.25,0,0,1,13.806-2.86,30.057,30.057,0,0,1,12.172,2.328,24.073,24.073,0,0,1,8.863,6.535,28.773,28.773,0,0,1,5.392,10.049,42.714,42.714,0,0,1,1.838,12.866v49.726a3.618,3.618,0,0,1-3.618,3.618H847.809a3.618,3.618,0,0,1-3.618-3.618V459.315q0-7.678-3.513-11.886t-10.7-4.207a21.012,21.012,0,0,0-9.8,2.369,35.17,35.17,0,0,0-8.659,6.453v57a3.618,3.618,0,0,1-3.618,3.618H794.955a3.618,3.618,0,0,1-3.618-3.618V394.884a3.617,3.617,0,0,1,3.618-3.617H807.9a3.617,3.617,0,0,1,3.618,3.617Z" fill="#fff"/>
      <path id="Path_2380" data-name="Path 2380" d="M917.745,427.537A45.726,45.726,0,0,1,934.7,430.56a37.186,37.186,0,0,1,13.07,8.577A37.716,37.716,0,0,1,956.14,452.7a56.153,56.153,0,0,1,0,35.863,38.517,38.517,0,0,1-8.374,13.642,36.6,36.6,0,0,1-13.07,8.659,45.726,45.726,0,0,1-16.951,3.022,46.273,46.273,0,0,1-17.074-3.022A36.493,36.493,0,0,1,887.56,502.2a38.963,38.963,0,0,1-8.415-13.642,55.421,55.421,0,0,1,0-35.863,38.148,38.148,0,0,1,8.415-13.561,37.076,37.076,0,0,1,13.111-8.577A46.272,46.272,0,0,1,917.745,427.537Zm0,70.827q10.455,0,15.48-7.026t5.024-20.586q0-13.56-5.024-20.668t-15.48-7.107q-10.621,0-15.726,7.148t-5.106,20.627q0,13.479,5.106,20.545T917.745,498.364Z" fill="#fff"/>
      <path id="Path_2381" data-name="Path 2381" d="M992.23,394.884V509.041a3.618,3.618,0,0,1-3.618,3.618H975.67a3.618,3.618,0,0,1-3.618-3.618V394.884a3.617,3.617,0,0,1,3.618-3.617h12.942A3.617,3.617,0,0,1,992.23,394.884Z" fill="#fff"/>
      <path id="Path_2382" data-name="Path 2382" d="M1025.215,473.284a39.647,39.647,0,0,0,2.287,11.151,22.793,22.793,0,0,0,4.738,7.761,18.548,18.548,0,0,0,6.985,4.574,25.337,25.337,0,0,0,8.945,1.512,27.717,27.717,0,0,0,8.455-1.144,39.632,39.632,0,0,0,6.209-2.532q2.652-1.389,4.656-2.533a7.812,7.812,0,0,1,3.88-1.144,4.177,4.177,0,0,1,3.758,1.879l5.8,7.353a33.649,33.649,0,0,1-7.516,6.576,42.2,42.2,0,0,1-8.7,4.248,47.572,47.572,0,0,1-9.231,2.246,66.207,66.207,0,0,1-9.108.653,44.8,44.8,0,0,1-16.257-2.9,36.364,36.364,0,0,1-13.07-8.578,40.228,40.228,0,0,1-8.741-14.051,54.373,54.373,0,0,1-3.186-19.4,46.385,46.385,0,0,1,2.777-16.133,38.8,38.8,0,0,1,7.965-13.153,37.524,37.524,0,0,1,12.662-8.863,41.732,41.732,0,0,1,16.87-3.268,41.039,41.039,0,0,1,14.622,2.533,31.878,31.878,0,0,1,11.519,7.393,34.275,34.275,0,0,1,7.556,11.927,44.441,44.441,0,0,1,2.737,16.133q0,4.578-.981,6.168t-3.758,1.593Zm38.476-12.172a24.3,24.3,0,0,0-1.1-7.393,17.591,17.591,0,0,0-3.308-6.086,15.425,15.425,0,0,0-5.6-4.125A19.221,19.221,0,0,0,1045.8,442q-8.742,0-13.765,4.983t-6.413,14.132Z" fill="#fff"/>
      <path id="Path_2383" data-name="Path 2383" d="M1145.577,445.183a5.383,5.383,0,0,1-1.716,1.838,4.43,4.43,0,0,1-2.286.53,7.2,7.2,0,0,1-3.146-.816q-1.675-.816-3.88-1.839a35.661,35.661,0,0,0-5.024-1.837,24.089,24.089,0,0,0-6.658-.818q-5.964,0-9.354,2.533a7.885,7.885,0,0,0-3.389,6.617,6.308,6.308,0,0,0,1.756,4.534,15.781,15.781,0,0,0,4.656,3.227,45.38,45.38,0,0,0,6.576,2.491q3.676,1.1,7.475,2.41t7.475,2.982a26.255,26.255,0,0,1,6.576,4.247,18.709,18.709,0,0,1,6.413,14.828,28.289,28.289,0,0,1-2.165,11.151,24.107,24.107,0,0,1-6.413,8.822,30.225,30.225,0,0,1-10.5,5.8,49.2,49.2,0,0,1-22.874,1.307,49.875,49.875,0,0,1-7.924-2.165,43.748,43.748,0,0,1-7.025-3.267q-1.657-.965-3.108-2.015a3.6,3.6,0,0,1-.929-4.776l3.016-4.973a6.581,6.581,0,0,1,2.124-2.124,5.958,5.958,0,0,1,3.1-.735,6.534,6.534,0,0,1,3.553,1.062q1.674,1.062,3.881,2.288a34.651,34.651,0,0,0,5.187,2.287,22.823,22.823,0,0,0,7.556,1.062,19.6,19.6,0,0,0,6.168-.858,13.06,13.06,0,0,0,4.248-2.246,8.461,8.461,0,0,0,2.451-3.227,9.7,9.7,0,0,0,.776-3.8,6.78,6.78,0,0,0-1.756-4.819,15.415,15.415,0,0,0-4.657-3.268,44.949,44.949,0,0,0-6.617-2.492q-3.719-1.1-7.6-2.409a70.009,70.009,0,0,1-7.6-3.064,25.86,25.86,0,0,1-6.617-4.452,20.137,20.137,0,0,1-4.656-6.617,23.053,23.053,0,0,1-1.757-9.476,24.134,24.134,0,0,1,2.042-9.8,22.986,22.986,0,0,1,6.005-8.129,29.819,29.819,0,0,1,9.884-5.555,41.165,41.165,0,0,1,13.683-2.083,41.9,41.9,0,0,1,15.767,2.86,37.55,37.55,0,0,1,9.391,5.349,3.626,3.626,0,0,1,.814,4.771Z" fill="#fff"/>
      <path id="Path_2384" data-name="Path 2384" d="M1162.536,440.526q14.46-13.233,34.8-13.234a34.022,34.022,0,0,1,13.153,2.41,27.815,27.815,0,0,1,9.8,6.7,28.685,28.685,0,0,1,6.087,10.253,39.422,39.422,0,0,1,2.082,13.071v52.935h-9.149a9.228,9.228,0,0,1-4.411-.858,5.943,5.943,0,0,1-2.451-3.471l-1.8-6.046a72.914,72.914,0,0,1-6.208,5.025,36.59,36.59,0,0,1-6.29,3.635,33.885,33.885,0,0,1-6.985,2.246,40.281,40.281,0,0,1-8.21.776,32.208,32.208,0,0,1-9.8-1.429,21.518,21.518,0,0,1-7.761-4.289,19.228,19.228,0,0,1-5.064-7.107,25.192,25.192,0,0,1-1.8-9.885,19.676,19.676,0,0,1,1.061-6.331,18.508,18.508,0,0,1,3.472-6,28.878,28.878,0,0,1,6.25-5.391,40.655,40.655,0,0,1,9.435-4.412,81.586,81.586,0,0,1,13.03-3.063,130.349,130.349,0,0,1,16.991-1.43v-4.9q0-8.414-3.594-12.458t-10.375-4.044a24.644,24.644,0,0,0-8.128,1.144,33.557,33.557,0,0,0-5.678,2.573q-2.45,1.43-4.452,2.573a8.8,8.8,0,0,1-4.452,1.144,5.817,5.817,0,0,1-3.594-1.1,9.19,9.19,0,0,1-2.369-2.573Zm46.237,36.353a111.238,111.238,0,0,0-14.7,1.511,39.211,39.211,0,0,0-9.558,2.818,12.556,12.556,0,0,0-5.146,4,8.686,8.686,0,0,0-1.552,4.984q0,5.31,3.145,7.6a13.624,13.624,0,0,0,8.209,2.287,23.931,23.931,0,0,0,10.743-2.247,31.88,31.88,0,0,0,8.863-6.821Z" fill="#fff"/>
      <path id="Path_2385" data-name="Path 2385" d="M1265.188,394.884V509.041a3.618,3.618,0,0,1-3.618,3.618h-12.942a3.618,3.618,0,0,1-3.618-3.618V394.884a3.617,3.617,0,0,1,3.618-3.617h12.942A3.617,3.617,0,0,1,1265.188,394.884Z" fill="#fff"/>
      <path id="Path_2386" data-name="Path 2386" d="M1298.173,473.284a39.647,39.647,0,0,0,2.287,11.151,22.793,22.793,0,0,0,4.738,7.761,18.557,18.557,0,0,0,6.985,4.574,25.341,25.341,0,0,0,8.945,1.512,27.712,27.712,0,0,0,8.455-1.144,39.632,39.632,0,0,0,6.209-2.532q2.652-1.389,4.656-2.533a7.812,7.812,0,0,1,3.88-1.144,4.177,4.177,0,0,1,3.758,1.879l5.8,7.353a33.666,33.666,0,0,1-7.515,6.576,42.208,42.208,0,0,1-8.7,4.248,47.555,47.555,0,0,1-9.231,2.246,66.2,66.2,0,0,1-9.108.653,44.787,44.787,0,0,1-16.256-2.9A36.359,36.359,0,0,1,1290,502.407a40.229,40.229,0,0,1-8.741-14.051,54.375,54.375,0,0,1-3.186-19.4,46.409,46.409,0,0,1,2.777-16.133,38.8,38.8,0,0,1,7.965-13.153,37.525,37.525,0,0,1,12.662-8.863,41.732,41.732,0,0,1,16.87-3.268,41.039,41.039,0,0,1,14.622,2.533,31.877,31.877,0,0,1,11.519,7.393,34.273,34.273,0,0,1,7.556,11.927,44.441,44.441,0,0,1,2.737,16.133q0,4.578-.981,6.168t-3.758,1.593Zm38.476-12.172a24.33,24.33,0,0,0-1.1-7.393,17.609,17.609,0,0,0-3.309-6.086,15.417,15.417,0,0,0-5.6-4.125,19.217,19.217,0,0,0-7.883-1.511q-8.742,0-13.765,4.983t-6.413,14.132Z" fill="#fff"/>
    </g>
    <g id="Group_3610" data-name="Group 3610">
      <g id="Group_3608" data-name="Group 3608">
        <path id="Path_2387" data-name="Path 2387" d="M1405.51,443.376l11.334,15.877-5.452,7.636-29.729,41.655a9.811,9.811,0,0,1-7.986,4.112h-14.153a2.715,2.715,0,0,1-2.21-4.292l41.835-58.628,5.452-7.636Z" fill="#6c6cff"/>
        <path id="Path_2388" data-name="Path 2388" d="M1459.948,398.824l-28.93,40.558a2.382,2.382,0,0,1-3.878,0l-7.12-9.986a7.672,7.672,0,0,1,0-8.909l15.576-21.839a9.812,9.812,0,0,1,7.988-4.115h14.153A2.715,2.715,0,0,1,1459.948,398.824Z" fill="#6c6cff"/>
      </g>
      <g id="Group_3609" data-name="Group 3609">
        <path id="Path_2389" data-name="Path 2389" d="M1463.252,512.656H1449.1a9.81,9.81,0,0,1-7.987-4.113l-29.721-41.654-12.243-17.153-36.321-50.912a2.715,2.715,0,0,1,2.21-4.292h14.154a9.812,9.812,0,0,1,7.987,4.113l24.213,33.931,12.235,17.16,41.835,58.628A2.715,2.715,0,0,1,1463.252,512.656Z" fill="#6c6cff"/>
      </g>
    </g>
  </g>
</svg>
